<mxfile host="app.diagrams.net" modified="2024-07-01T13:39:37.381Z" agent="Mozilla/5.0 (Windows NT 10.0; Win64; x64; rv:127.0) Gecko/20100101 Firefox/127.0" etag="U2DSshLpFnaY0WC74DFZ" version="24.6.3" type="github" pages="3">
  <diagram name="Schema Generale Logico" id="KWpBGZC6mcjvpWGUGXlr">
    <mxGraphModel dx="600" dy="323" grid="0" gridSize="10" guides="1" tooltips="1" connect="1" arrows="1" fold="1" page="1" pageScale="1" pageWidth="827" pageHeight="1169" math="0" shadow="0">
      <root>
        <mxCell id="0" />
        <mxCell id="1" parent="0" />
        <mxCell id="Q0O4g2cf5NRm_-HkYTOn-2" value="" style="rounded=0;whiteSpace=wrap;html=1;fillColor=#bac8d3;strokeColor=#23445d;" parent="1" vertex="1">
          <mxGeometry x="160" y="160" width="320" height="320" as="geometry" />
        </mxCell>
        <mxCell id="Q0O4g2cf5NRm_-HkYTOn-3" value="" style="endArrow=none;html=1;rounded=0;exitX=1;exitY=0.5;exitDx=0;exitDy=0;entryX=0;entryY=0.5;entryDx=0;entryDy=0;" parent="1" source="Q0O4g2cf5NRm_-HkYTOn-2" target="Q0O4g2cf5NRm_-HkYTOn-2" edge="1">
          <mxGeometry width="50" height="50" relative="1" as="geometry">
            <mxPoint x="310" y="350" as="sourcePoint" />
            <mxPoint x="360" y="300" as="targetPoint" />
          </mxGeometry>
        </mxCell>
        <mxCell id="Q0O4g2cf5NRm_-HkYTOn-4" value="MATLAB Main" style="text;html=1;strokeColor=none;fillColor=none;align=center;verticalAlign=middle;whiteSpace=wrap;rounded=0;" parent="1" vertex="1">
          <mxGeometry x="160" y="160" width="60" height="30" as="geometry" />
        </mxCell>
        <mxCell id="Q0O4g2cf5NRm_-HkYTOn-5" value="Physical Main" style="text;html=1;strokeColor=none;fillColor=none;align=center;verticalAlign=middle;whiteSpace=wrap;rounded=0;" parent="1" vertex="1">
          <mxGeometry x="160" y="320" width="60" height="30" as="geometry" />
        </mxCell>
        <mxCell id="Q0O4g2cf5NRm_-HkYTOn-6" value="Image Analysis" style="rounded=1;whiteSpace=wrap;html=1;fillColor=#fad7ac;strokeColor=#b46504;" parent="1" vertex="1">
          <mxGeometry x="247.5" y="210" width="145" height="60" as="geometry" />
        </mxCell>
        <mxCell id="Q0O4g2cf5NRm_-HkYTOn-9" value="Processo A" style="rounded=1;whiteSpace=wrap;html=1;fillColor=#dae8fc;strokeColor=#6c8ebf;" parent="1" vertex="1">
          <mxGeometry x="180" y="380" width="120" height="50" as="geometry" />
        </mxCell>
        <mxCell id="Q0O4g2cf5NRm_-HkYTOn-11" value="Processo B" style="rounded=1;whiteSpace=wrap;html=1;fillColor=#e1d5e7;strokeColor=#9673a6;" parent="1" vertex="1">
          <mxGeometry x="340" y="380" width="120" height="50" as="geometry" />
        </mxCell>
        <mxCell id="Q0O4g2cf5NRm_-HkYTOn-12" value="" style="endArrow=classic;html=1;rounded=0;exitX=0.25;exitY=1;exitDx=0;exitDy=0;" parent="1" source="Q0O4g2cf5NRm_-HkYTOn-6" edge="1">
          <mxGeometry width="50" height="50" relative="1" as="geometry">
            <mxPoint x="310" y="350" as="sourcePoint" />
            <mxPoint x="250" y="380" as="targetPoint" />
          </mxGeometry>
        </mxCell>
        <mxCell id="Q0O4g2cf5NRm_-HkYTOn-16" value="Path Immagine" style="edgeLabel;html=1;align=center;verticalAlign=middle;resizable=0;points=[];rotation=-75;" parent="Q0O4g2cf5NRm_-HkYTOn-12" vertex="1" connectable="0">
          <mxGeometry x="-0.5643" y="-2" relative="1" as="geometry">
            <mxPoint x="-24" y="27" as="offset" />
          </mxGeometry>
        </mxCell>
        <mxCell id="Q0O4g2cf5NRm_-HkYTOn-13" value="" style="endArrow=classic;html=1;rounded=0;exitX=0.75;exitY=0;exitDx=0;exitDy=0;entryX=0.401;entryY=0.987;entryDx=0;entryDy=0;entryPerimeter=0;" parent="1" source="Q0O4g2cf5NRm_-HkYTOn-9" target="Q0O4g2cf5NRm_-HkYTOn-6" edge="1">
          <mxGeometry width="50" height="50" relative="1" as="geometry">
            <mxPoint x="310" y="350" as="sourcePoint" />
            <mxPoint x="360" y="300" as="targetPoint" />
          </mxGeometry>
        </mxCell>
        <mxCell id="Q0O4g2cf5NRm_-HkYTOn-17" value="Photo nella path" style="edgeLabel;html=1;align=center;verticalAlign=middle;resizable=0;points=[];rotation=-75;" parent="Q0O4g2cf5NRm_-HkYTOn-13" vertex="1" connectable="0">
          <mxGeometry x="-0.1998" relative="1" as="geometry">
            <mxPoint x="16" y="-6" as="offset" />
          </mxGeometry>
        </mxCell>
        <mxCell id="Q0O4g2cf5NRm_-HkYTOn-14" value="" style="endArrow=classic;html=1;rounded=0;exitX=0.75;exitY=1;exitDx=0;exitDy=0;entryX=0.5;entryY=0;entryDx=0;entryDy=0;" parent="1" source="Q0O4g2cf5NRm_-HkYTOn-6" target="Q0O4g2cf5NRm_-HkYTOn-11" edge="1">
          <mxGeometry width="50" height="50" relative="1" as="geometry">
            <mxPoint x="310" y="350" as="sourcePoint" />
            <mxPoint x="360" y="300" as="targetPoint" />
          </mxGeometry>
        </mxCell>
        <mxCell id="Q0O4g2cf5NRm_-HkYTOn-15" value="Forzamento" style="edgeLabel;html=1;align=center;verticalAlign=middle;resizable=0;points=[];rotation=65;" parent="Q0O4g2cf5NRm_-HkYTOn-14" vertex="1" connectable="0">
          <mxGeometry x="-0.5536" y="-2" relative="1" as="geometry">
            <mxPoint x="26" y="25" as="offset" />
          </mxGeometry>
        </mxCell>
        <mxCell id="Q0O4g2cf5NRm_-HkYTOn-18" value="Text" style="text;html=1;strokeColor=none;fillColor=none;align=center;verticalAlign=middle;whiteSpace=wrap;rounded=0;" parent="1" vertex="1">
          <mxGeometry x="390" y="430" width="60" height="30" as="geometry" />
        </mxCell>
        <mxCell id="Q0O4g2cf5NRm_-HkYTOn-19" value="Text" style="text;html=1;strokeColor=none;fillColor=none;align=center;verticalAlign=middle;whiteSpace=wrap;rounded=0;" parent="1" vertex="1">
          <mxGeometry x="390" y="430" width="60" height="30" as="geometry" />
        </mxCell>
        <mxCell id="Q0O4g2cf5NRm_-HkYTOn-20" value="Text" style="text;html=1;strokeColor=none;fillColor=none;align=center;verticalAlign=middle;whiteSpace=wrap;rounded=0;" parent="1" vertex="1">
          <mxGeometry x="390" y="430" width="60" height="30" as="geometry" />
        </mxCell>
        <mxCell id="Q0O4g2cf5NRm_-HkYTOn-21" value="Text" style="text;html=1;strokeColor=none;fillColor=none;align=center;verticalAlign=middle;whiteSpace=wrap;rounded=0;" parent="1" vertex="1">
          <mxGeometry x="390" y="430" width="60" height="30" as="geometry" />
        </mxCell>
        <mxCell id="Q0O4g2cf5NRm_-HkYTOn-24" value="Control Server" style="text;html=1;strokeColor=none;fillColor=none;align=center;verticalAlign=middle;whiteSpace=wrap;rounded=0;fontStyle=1;fontSize=19;" parent="1" vertex="1">
          <mxGeometry x="160" y="130" width="140" height="30" as="geometry" />
        </mxCell>
        <mxCell id="Q0O4g2cf5NRm_-HkYTOn-25" value="" style="rounded=0;whiteSpace=wrap;html=1;fillColor=#d5e8d4;strokeColor=#82b366;" parent="1" vertex="1">
          <mxGeometry x="160" y="560" width="240" height="280" as="geometry" />
        </mxCell>
        <mxCell id="Q0O4g2cf5NRm_-HkYTOn-27" value="" style="endArrow=classic;html=1;rounded=0;exitX=0.25;exitY=1;exitDx=0;exitDy=0;entryX=0.211;entryY=0.003;entryDx=0;entryDy=0;entryPerimeter=0;" parent="1" source="Q0O4g2cf5NRm_-HkYTOn-9" target="Q0O4g2cf5NRm_-HkYTOn-25" edge="1">
          <mxGeometry width="50" height="50" relative="1" as="geometry">
            <mxPoint x="400" y="510" as="sourcePoint" />
            <mxPoint x="450" y="460" as="targetPoint" />
          </mxGeometry>
        </mxCell>
        <mxCell id="Q0O4g2cf5NRm_-HkYTOn-29" value="Photo Request" style="edgeLabel;html=1;align=center;verticalAlign=middle;resizable=0;points=[];rotation=-90;" parent="Q0O4g2cf5NRm_-HkYTOn-27" vertex="1" connectable="0">
          <mxGeometry x="0.1819" relative="1" as="geometry">
            <mxPoint x="-10" y="14" as="offset" />
          </mxGeometry>
        </mxCell>
        <mxCell id="Q0O4g2cf5NRm_-HkYTOn-28" value="" style="endArrow=classic;html=1;rounded=0;exitX=0.337;exitY=-0.007;exitDx=0;exitDy=0;exitPerimeter=0;entryX=0.5;entryY=1;entryDx=0;entryDy=0;" parent="1" source="Q0O4g2cf5NRm_-HkYTOn-25" target="Q0O4g2cf5NRm_-HkYTOn-9" edge="1">
          <mxGeometry width="50" height="50" relative="1" as="geometry">
            <mxPoint x="400" y="510" as="sourcePoint" />
            <mxPoint x="450" y="460" as="targetPoint" />
          </mxGeometry>
        </mxCell>
        <mxCell id="Q0O4g2cf5NRm_-HkYTOn-30" value="Photo send" style="edgeLabel;html=1;align=center;verticalAlign=middle;resizable=0;points=[];rotation=-90;" parent="Q0O4g2cf5NRm_-HkYTOn-28" vertex="1" connectable="0">
          <mxGeometry x="-0.1456" y="-3" relative="1" as="geometry">
            <mxPoint x="7" y="15" as="offset" />
          </mxGeometry>
        </mxCell>
        <mxCell id="Q0O4g2cf5NRm_-HkYTOn-31" value="ESP32-CAM" style="text;html=1;strokeColor=none;fillColor=none;align=center;verticalAlign=middle;whiteSpace=wrap;rounded=0;fontStyle=1;fontSize=19;" parent="1" vertex="1">
          <mxGeometry x="260" y="810" width="140" height="30" as="geometry" />
        </mxCell>
        <mxCell id="Q0O4g2cf5NRm_-HkYTOn-32" value="HTTP Server" style="rounded=1;whiteSpace=wrap;html=1;fillColor=#fff2cc;strokeColor=#d6b656;" parent="1" vertex="1">
          <mxGeometry x="210" y="660" width="140" height="70" as="geometry" />
        </mxCell>
        <mxCell id="Q0O4g2cf5NRm_-HkYTOn-33" value="" style="rounded=0;whiteSpace=wrap;html=1;fillColor=#b0e3e6;strokeColor=#0e8088;" parent="1" vertex="1">
          <mxGeometry x="480" y="560" width="240" height="290" as="geometry" />
        </mxCell>
        <mxCell id="Q0O4g2cf5NRm_-HkYTOn-36" value="Ultrasuoni Servo Manager" style="text;html=1;strokeColor=none;fillColor=none;align=center;verticalAlign=middle;whiteSpace=wrap;rounded=0;fontStyle=1;fontSize=19;" parent="1" vertex="1">
          <mxGeometry x="580" y="800" width="140" height="30" as="geometry" />
        </mxCell>
        <mxCell id="Q0O4g2cf5NRm_-HkYTOn-38" value="Controllo di presenza oggetto" style="rounded=1;whiteSpace=wrap;html=1;fillColor=#bac8d3;strokeColor=#23445d;" parent="1" vertex="1">
          <mxGeometry x="490" y="585" width="100" height="60" as="geometry" />
        </mxCell>
        <mxCell id="Q0O4g2cf5NRm_-HkYTOn-39" value="Attesa del forzamento per il servomotore" style="rounded=1;whiteSpace=wrap;html=1;fillColor=#b1ddf0;strokeColor=#10739e;" parent="1" vertex="1">
          <mxGeometry x="610" y="585" width="100" height="60" as="geometry" />
        </mxCell>
        <mxCell id="Q0O4g2cf5NRm_-HkYTOn-40" value="" style="endArrow=classic;html=1;rounded=0;exitX=1;exitY=1;exitDx=0;exitDy=0;entryX=0.25;entryY=0;entryDx=0;entryDy=0;" parent="1" source="Q0O4g2cf5NRm_-HkYTOn-11" target="Q0O4g2cf5NRm_-HkYTOn-39" edge="1">
          <mxGeometry width="50" height="50" relative="1" as="geometry">
            <mxPoint x="400" y="650" as="sourcePoint" />
            <mxPoint x="450" y="600" as="targetPoint" />
          </mxGeometry>
        </mxCell>
        <mxCell id="Q0O4g2cf5NRm_-HkYTOn-43" value="Forzamento" style="edgeLabel;html=1;align=center;verticalAlign=middle;resizable=0;points=[];rotation=45;" parent="Q0O4g2cf5NRm_-HkYTOn-40" vertex="1" connectable="0">
          <mxGeometry x="-0.2893" y="2" relative="1" as="geometry">
            <mxPoint x="36" y="6" as="offset" />
          </mxGeometry>
        </mxCell>
        <mxCell id="Q0O4g2cf5NRm_-HkYTOn-41" value="" style="endArrow=classic;html=1;rounded=0;entryX=1;entryY=1;entryDx=0;entryDy=0;exitX=0.25;exitY=0;exitDx=0;exitDy=0;" parent="1" source="Q0O4g2cf5NRm_-HkYTOn-38" target="Q0O4g2cf5NRm_-HkYTOn-9" edge="1">
          <mxGeometry width="50" height="50" relative="1" as="geometry">
            <mxPoint x="400" y="650" as="sourcePoint" />
            <mxPoint x="450" y="600" as="targetPoint" />
          </mxGeometry>
        </mxCell>
        <mxCell id="Q0O4g2cf5NRm_-HkYTOn-42" value="Oggetto rilevato" style="edgeLabel;html=1;align=center;verticalAlign=middle;resizable=0;points=[];rotation=35;" parent="Q0O4g2cf5NRm_-HkYTOn-41" vertex="1" connectable="0">
          <mxGeometry x="0.0523" y="-3" relative="1" as="geometry">
            <mxPoint x="47" y="19" as="offset" />
          </mxGeometry>
        </mxCell>
        <mxCell id="Q0O4g2cf5NRm_-HkYTOn-44" value="" style="endArrow=classic;html=1;rounded=0;exitX=1;exitY=0.5;exitDx=0;exitDy=0;entryX=0;entryY=0.5;entryDx=0;entryDy=0;" parent="1" source="Q0O4g2cf5NRm_-HkYTOn-38" target="Q0O4g2cf5NRm_-HkYTOn-39" edge="1">
          <mxGeometry width="50" height="50" relative="1" as="geometry">
            <mxPoint x="530" y="670" as="sourcePoint" />
            <mxPoint x="580" y="620" as="targetPoint" />
          </mxGeometry>
        </mxCell>
        <mxCell id="Q0O4g2cf5NRm_-HkYTOn-46" value="1" style="edgeLabel;html=1;align=center;verticalAlign=middle;resizable=0;points=[];" parent="Q0O4g2cf5NRm_-HkYTOn-44" vertex="1" connectable="0">
          <mxGeometry x="-0.3733" relative="1" as="geometry">
            <mxPoint x="4" y="-15" as="offset" />
          </mxGeometry>
        </mxCell>
        <mxCell id="Q0O4g2cf5NRm_-HkYTOn-45" value="" style="endArrow=classic;html=1;rounded=0;exitX=0.5;exitY=1;exitDx=0;exitDy=0;entryX=0.5;entryY=1;entryDx=0;entryDy=0;" parent="1" source="Q0O4g2cf5NRm_-HkYTOn-39" target="Q0O4g2cf5NRm_-HkYTOn-38" edge="1">
          <mxGeometry width="50" height="50" relative="1" as="geometry">
            <mxPoint x="530" y="670" as="sourcePoint" />
            <mxPoint x="580" y="620" as="targetPoint" />
            <Array as="points">
              <mxPoint x="660" y="680" />
              <mxPoint x="540" y="680" />
            </Array>
          </mxGeometry>
        </mxCell>
        <mxCell id="Q0O4g2cf5NRm_-HkYTOn-47" value="2" style="edgeLabel;html=1;align=center;verticalAlign=middle;resizable=0;points=[];" parent="Q0O4g2cf5NRm_-HkYTOn-45" vertex="1" connectable="0">
          <mxGeometry x="0.0498" relative="1" as="geometry">
            <mxPoint x="5" y="-10" as="offset" />
          </mxGeometry>
        </mxCell>
      </root>
    </mxGraphModel>
  </diagram>
  <diagram id="RBzzBE57FOhCq4OdrrUp" name="Schema eventi motore">
    <mxGraphModel dx="875" dy="524" grid="0" gridSize="10" guides="1" tooltips="1" connect="1" arrows="1" fold="1" page="1" pageScale="1" pageWidth="827" pageHeight="1169" math="0" shadow="0">
      <root>
        <mxCell id="0" />
        <mxCell id="1" parent="0" />
        <mxCell id="rTPQavoNS0fitxyBxFO8-1" value="Plastica" style="ellipse;whiteSpace=wrap;html=1;fontSize=20;fillColor=#b1ddf0;strokeColor=#10739e;" vertex="1" parent="1">
          <mxGeometry x="120" y="280" width="120" height="80" as="geometry" />
        </mxCell>
        <mxCell id="rTPQavoNS0fitxyBxFO8-2" value="Carta" style="ellipse;whiteSpace=wrap;html=1;fontSize=20;fillColor=#b0e3e6;strokeColor=#0e8088;" vertex="1" parent="1">
          <mxGeometry x="420" y="280" width="120" height="80" as="geometry" />
        </mxCell>
        <mxCell id="rTPQavoNS0fitxyBxFO8-3" value="Centrale&lt;br&gt;(o riposo)" style="ellipse;whiteSpace=wrap;html=1;fontSize=20;fillColor=#d0cee2;strokeColor=#56517e;" vertex="1" parent="1">
          <mxGeometry x="270" y="150" width="120" height="80" as="geometry" />
        </mxCell>
        <mxCell id="rTPQavoNS0fitxyBxFO8-5" value="" style="endArrow=classic;html=1;rounded=0;exitX=1;exitY=0.5;exitDx=0;exitDy=0;entryX=0.5;entryY=0;entryDx=0;entryDy=0;" edge="1" parent="1" source="rTPQavoNS0fitxyBxFO8-3" target="rTPQavoNS0fitxyBxFO8-2">
          <mxGeometry width="50" height="50" relative="1" as="geometry">
            <mxPoint x="390" y="350" as="sourcePoint" />
            <mxPoint x="440" y="300" as="targetPoint" />
          </mxGeometry>
        </mxCell>
        <mxCell id="rTPQavoNS0fitxyBxFO8-14" value="Forzamento = carta" style="edgeLabel;html=1;align=center;verticalAlign=middle;resizable=0;points=[];" vertex="1" connectable="0" parent="rTPQavoNS0fitxyBxFO8-5">
          <mxGeometry x="-0.1318" relative="1" as="geometry">
            <mxPoint x="21" as="offset" />
          </mxGeometry>
        </mxCell>
        <mxCell id="rTPQavoNS0fitxyBxFO8-6" value="" style="endArrow=classic;html=1;rounded=0;entryX=1;entryY=1;entryDx=0;entryDy=0;exitX=0;exitY=0;exitDx=0;exitDy=0;" edge="1" parent="1" source="rTPQavoNS0fitxyBxFO8-2" target="rTPQavoNS0fitxyBxFO8-3">
          <mxGeometry width="50" height="50" relative="1" as="geometry">
            <mxPoint x="350" y="280" as="sourcePoint" />
            <mxPoint x="400" y="230" as="targetPoint" />
          </mxGeometry>
        </mxCell>
        <mxCell id="rTPQavoNS0fitxyBxFO8-13" value="Fine Movimento" style="edgeLabel;html=1;align=center;verticalAlign=middle;resizable=0;points=[];" vertex="1" connectable="0" parent="rTPQavoNS0fitxyBxFO8-6">
          <mxGeometry x="0.247" y="-1" relative="1" as="geometry">
            <mxPoint y="25" as="offset" />
          </mxGeometry>
        </mxCell>
        <mxCell id="rTPQavoNS0fitxyBxFO8-7" value="" style="endArrow=classic;html=1;rounded=0;exitX=0;exitY=1;exitDx=0;exitDy=0;entryX=1;entryY=0;entryDx=0;entryDy=0;" edge="1" parent="1" source="rTPQavoNS0fitxyBxFO8-3" target="rTPQavoNS0fitxyBxFO8-1">
          <mxGeometry width="50" height="50" relative="1" as="geometry">
            <mxPoint x="280" y="260" as="sourcePoint" />
            <mxPoint x="230" y="310" as="targetPoint" />
            <Array as="points" />
          </mxGeometry>
        </mxCell>
        <mxCell id="rTPQavoNS0fitxyBxFO8-11" value="Forzamento = Plastica" style="edgeLabel;html=1;align=center;verticalAlign=middle;resizable=0;points=[];rotation=0;" vertex="1" connectable="0" parent="rTPQavoNS0fitxyBxFO8-7">
          <mxGeometry x="-0.0761" y="2" relative="1" as="geometry">
            <mxPoint x="31" as="offset" />
          </mxGeometry>
        </mxCell>
        <mxCell id="rTPQavoNS0fitxyBxFO8-10" value="" style="endArrow=classic;html=1;rounded=0;exitX=0.5;exitY=0;exitDx=0;exitDy=0;entryX=0;entryY=0.5;entryDx=0;entryDy=0;" edge="1" parent="1" source="rTPQavoNS0fitxyBxFO8-1" target="rTPQavoNS0fitxyBxFO8-3">
          <mxGeometry width="50" height="50" relative="1" as="geometry">
            <mxPoint x="350" y="280" as="sourcePoint" />
            <mxPoint x="400" y="230" as="targetPoint" />
          </mxGeometry>
        </mxCell>
        <mxCell id="rTPQavoNS0fitxyBxFO8-12" value="Fine movimento" style="edgeLabel;html=1;align=center;verticalAlign=middle;resizable=0;points=[];rotation=0;" vertex="1" connectable="0" parent="rTPQavoNS0fitxyBxFO8-10">
          <mxGeometry x="-0.1195" y="-1" relative="1" as="geometry">
            <mxPoint y="-21" as="offset" />
          </mxGeometry>
        </mxCell>
        <mxCell id="rTPQavoNS0fitxyBxFO8-15" value="" style="endArrow=classic;html=1;rounded=0;exitX=0.5;exitY=0;exitDx=0;exitDy=0;entryX=1;entryY=0;entryDx=0;entryDy=0;" edge="1" parent="1" source="rTPQavoNS0fitxyBxFO8-3" target="rTPQavoNS0fitxyBxFO8-3">
          <mxGeometry width="50" height="50" relative="1" as="geometry">
            <mxPoint x="320" y="300" as="sourcePoint" />
            <mxPoint x="370" y="250" as="targetPoint" />
            <Array as="points">
              <mxPoint x="330" y="90" />
              <mxPoint x="360" y="90" />
              <mxPoint x="370" y="90" />
            </Array>
          </mxGeometry>
        </mxCell>
        <mxCell id="rTPQavoNS0fitxyBxFO8-20" value="Forzamento = vuoto" style="edgeLabel;html=1;align=center;verticalAlign=middle;resizable=0;points=[];" vertex="1" connectable="0" parent="rTPQavoNS0fitxyBxFO8-15">
          <mxGeometry x="-0.1215" relative="1" as="geometry">
            <mxPoint y="-10" as="offset" />
          </mxGeometry>
        </mxCell>
      </root>
    </mxGraphModel>
  </diagram>
  <diagram id="UXZ948NJ7c-mmv74Bl3L" name="Path Structure">
    <mxGraphModel dx="1050" dy="566" grid="1" gridSize="10" guides="1" tooltips="1" connect="1" arrows="1" fold="1" page="1" pageScale="1" pageWidth="827" pageHeight="1169" math="0" shadow="0">
      <root>
        <mxCell id="0" />
        <mxCell id="1" parent="0" />
        <mxCell id="7eydNMS57yUd46UmWRm8-9" value="&lt;div&gt;Dataset&lt;/div&gt;" style="shape=folder;fontStyle=1;tabWidth=80;tabHeight=30;tabPosition=left;html=1;boundedLbl=1;whiteSpace=wrap;verticalAlign=top;align=left;fillColor=#f8cecc;strokeColor=#b85450;" vertex="1" parent="1">
          <mxGeometry x="140" y="80" width="410" height="310" as="geometry" />
        </mxCell>
        <mxCell id="7eydNMS57yUd46UmWRm8-10" value="carta" style="shape=folder;fontStyle=1;tabWidth=80;tabHeight=30;tabPosition=left;html=1;boundedLbl=1;whiteSpace=wrap;fillColor=#d5e8d4;strokeColor=#82b366;" vertex="1" parent="1">
          <mxGeometry x="270" y="120" width="150" height="80" as="geometry" />
        </mxCell>
        <mxCell id="7eydNMS57yUd46UmWRm8-11" value="plastica" style="shape=folder;fontStyle=1;tabWidth=80;tabHeight=30;tabPosition=left;html=1;boundedLbl=1;whiteSpace=wrap;fillColor=#e1d5e7;strokeColor=#9673a6;" vertex="1" parent="1">
          <mxGeometry x="270" y="210" width="150" height="80" as="geometry" />
        </mxCell>
        <mxCell id="7eydNMS57yUd46UmWRm8-12" value="vuoto" style="shape=folder;fontStyle=1;tabWidth=80;tabHeight=30;tabPosition=left;html=1;boundedLbl=1;whiteSpace=wrap;fillColor=#dae8fc;strokeColor=#6c8ebf;" vertex="1" parent="1">
          <mxGeometry x="270" y="300" width="150" height="80" as="geometry" />
        </mxCell>
      </root>
    </mxGraphModel>
  </diagram>
</mxfile>
